<svg width="18" height="16" viewBox="0 0 18 16" fill="none" xmlns="http://www.w3.org/2000/svg">
<path fill-rule="evenodd" clip-rule="evenodd" d="M7.50035 0.669112C6.76483 0.243563 5.91086 0 5 0C2.23858 0 0 2.23858 0 5C0 9 4.5 14.625 9 16C13.5 14.625 18 9 18 5C18 2.23858 15.7614 0 13 0C12.0891 0 11.2352 0.243562 10.4997 0.669111C9.91444 1.00771 9.40421 1.46151 9 1.99952C8.59579 1.46151 8.08557 1.00771 7.50035 0.669112ZM9 13.8781C10.5926 13.227 12.2784 11.8941 13.6349 10.2236C15.1827 8.31755 16 6.34924 16 5C16 3.34315 14.6569 2 13 2C12.0199 2 11.1497 2.46785 10.599 3.20086L9 5L7.40101 3.20086C6.85029 2.46785 5.98007 2 5 2C3.34315 2 2 3.34315 2 5C2 6.34924 2.81729 8.31755 4.36509 10.2236C5.7216 11.8941 7.40737 13.227 9 13.8781Z" fill="white"/>
</svg>
