<svg width="20" height="20" viewBox="0 0 20 20" fill="" xmlns="http://www.w3.org/2000/svg">
<path d="M10 1.8018C12.6701 1.8018 12.9864 1.81199 14.0409 1.86009C15.0158 1.90458 15.5453 2.06748 15.8977 2.20442C16.3645 2.38582 16.6976 2.60254 17.0475 2.95246C17.3975 3.30239 17.6142 3.63552 17.7956 4.10228C17.9325 4.45466 18.0954 4.98417 18.1399 5.95914C18.188 7.01361 18.1982 7.32988 18.1982 10C18.1982 12.6701 18.188 12.9864 18.1399 14.0409C18.0954 15.0158 17.9325 15.5453 17.7956 15.8977C17.6142 16.3645 17.3975 16.6976 17.0475 17.0475C16.6976 17.3975 16.3645 17.6142 15.8977 17.7956C15.5453 17.9325 15.0158 18.0954 14.0409 18.1399C12.9865 18.188 12.6703 18.1982 10 18.1982C7.3297 18.1982 7.01346 18.188 5.95915 18.1399C4.98417 18.0954 4.45466 17.9325 4.10228 17.7956C3.63552 17.6142 3.30239 17.3975 2.95248 17.0475C2.60255 16.6976 2.38582 16.3645 2.20442 15.8977C2.06748 15.5453 1.90458 15.0158 1.86009 14.0409C1.81199 12.9864 1.8018 12.6701 1.8018 10C1.8018 7.32988 1.81199 7.01361 1.86009 5.95915C1.90458 4.98417 2.06748 4.45466 2.20442 4.10228C2.38582 3.63552 2.60254 3.30239 2.95246 2.95248C3.30239 2.60254 3.63552 2.38582 4.10228 2.20442C4.45466 2.06748 4.98417 1.90458 5.95914 1.86009C7.01361 1.81199 7.32988 1.8018 10 1.8018ZM10 0C7.28416 0 6.94362 0.0115027 5.87702 0.0601658C4.81261 0.108735 4.08571 0.27778 3.44961 0.524988C2.79203 0.780541 2.23434 1.12247 1.6784 1.6784C1.12247 2.23434 0.780541 2.79203 0.524988 3.44961C0.27778 4.08571 0.108735 4.81261 0.0601658 5.87702C0.0115027 6.94362 0 7.28415 0 10C0 12.7158 0.0115027 13.0564 0.0601658 14.123C0.108735 15.1874 0.27778 15.9143 0.524988 16.5504C0.780541 17.208 1.12247 17.7657 1.6784 18.3216C2.23434 18.8775 2.79203 19.2195 3.44961 19.475C4.08571 19.7222 4.81261 19.8913 5.87702 19.9398C6.94362 19.9885 7.28416 20 10 20C12.7158 20 13.0564 19.9885 14.123 19.9398C15.1874 19.8913 15.9143 19.7222 16.5504 19.475C17.208 19.2195 17.7657 18.8775 18.3216 18.3216C18.8775 17.7657 19.2195 17.208 19.475 16.5504C19.7222 15.9143 19.8913 15.1874 19.9398 14.123C19.9885 13.0564 20 12.7158 20 10C20 7.28416 19.9885 6.94362 19.9398 5.87702C19.8913 4.81261 19.7222 4.08571 19.475 3.44961C19.2195 2.79203 18.8775 2.23434 18.3216 1.6784C17.7657 1.12247 17.208 0.780541 16.5504 0.524988C15.9143 0.27778 15.1874 0.108735 14.123 0.0601658C13.0564 0.0115027 12.7158 0 10 0ZM10 4.86486C7.16394 4.86486 4.86486 7.16394 4.86486 10C4.86486 12.8361 7.16394 15.1351 10 15.1351C12.8361 15.1351 15.1351 12.8361 15.1351 10C15.1351 7.16394 12.8361 4.86486 10 4.86486ZM10 13.3333C8.15905 13.3333 6.66667 11.8409 6.66667 10C6.66667 8.15905 8.15905 6.66667 10 6.66667C11.8409 6.66667 13.3333 8.15905 13.3333 10C13.3333 11.841 11.8409 13.3333 10 13.3333ZM15.338 3.46197C14.6753 3.46197 14.138 3.99923 14.138 4.66197C14.138 5.32472 14.6753 5.86197 15.338 5.86197C16.0008 5.86197 16.538 5.32472 16.538 4.66197C16.538 3.99923 16.0008 3.46197 15.338 3.46197Z"/>
</svg>
