<svg width="16" height="18" viewBox="0 0 16 18" fill="none" xmlns="http://www.w3.org/2000/svg">
<path d="M12 4C12 6.20914 10.2091 8 8 8C5.79086 8 4 6.20914 4 4C4 1.79086 5.79086 0 8 0C10.2091 0 12 1.79086 12 4Z" fill="white"/>
<path d="M2 14.4787C2 13.9906 2.25692 13.4264 3.38266 12.8769C4.52332 12.3201 6.19525 12 7.99976 12C9.80412 12 11.4762 12.3201 12.6171 12.877C13.7431 13.4266 14 13.9908 14 14.4787L14 18H16V14.4787C16 11.3862 11.9851 10 7.99976 10C4.01421 10 0 11.386 0 14.4787V18H2V14.4787Z" fill="white"/>
</svg>
